<?xml version="1.0" encoding="us-ascii" standalone="no"?><svg xmlns="http://www.w3.org/2000/svg" xmlns:xlink="http://www.w3.org/1999/xlink" contentStyleType="text/css" height="850px" preserveAspectRatio="none" style="width:429px;height:850px;background:#FFFFFF;" version="1.1" viewBox="0 0 429 850" width="429px" zoomAndPan="magnify"><defs/><g><!--cluster Research Architecture--><g id="cluster_Research Architecture"><path d="M8.5,6 L187.5,6 A3.75,3.75 0 0 1 190,8.5 L197,28.2969 L419.5,28.2969 A2.5,2.5 0 0 1 422,30.7969 L422,840.58 A2.5,2.5 0 0 1 419.5,843.08 L8.5,843.08 A2.5,2.5 0 0 1 6,840.58 L6,8.5 A2.5,2.5 0 0 1 8.5,6 " fill="none" style="stroke:#000000;stroke-width:1.5;"/><line style="stroke:#000000;stroke-width:1.5;" x1="6" x2="197" y1="28.2969" y2="28.2969"/><text fill="#000000" font-family="sans-serif" font-size="14" font-weight="bold" lengthAdjust="spacing" textLength="178" x="10" y="20.9951">Research Architecture</text></g><!--entity JV--><g id="elem_JV"><rect fill="#F1F1F1" height="46.2969" rx="2.5" ry="2.5" style="stroke:#181818;stroke-width:0.5;" width="118" x="112" y="41"/><rect fill="#F1F1F1" height="10" style="stroke:#181818;stroke-width:0.5;" width="15" x="210" y="46"/><rect fill="#F1F1F1" height="2" style="stroke:#181818;stroke-width:0.5;" width="4" x="208" y="48"/><rect fill="#F1F1F1" height="2" style="stroke:#181818;stroke-width:0.5;" width="4" x="208" y="52"/><text fill="#000000" font-family="sans-serif" font-size="14" lengthAdjust="spacing" textLength="78" x="127" y="73.9951">Joint Vector</text></g><!--entity TC--><g id="elem_TC"><rect fill="#F1F1F1" height="46.2969" rx="2.5" ry="2.5" style="stroke:#181818;stroke-width:0.5;" width="157" x="22.5" y="164.3"/><rect fill="#F1F1F1" height="10" style="stroke:#181818;stroke-width:0.5;" width="15" x="159.5" y="169.3"/><rect fill="#F1F1F1" height="2" style="stroke:#181818;stroke-width:0.5;" width="4" x="157.5" y="171.3"/><rect fill="#F1F1F1" height="2" style="stroke:#181818;stroke-width:0.5;" width="4" x="157.5" y="175.3"/><text fill="#000000" font-family="sans-serif" font-size="14" lengthAdjust="spacing" textLength="117" x="37.5" y="197.2951">Trained Classifier</text></g><!--entity PJV--><g id="elem_PJV"><rect fill="#F1F1F1" height="46.2969" rx="2.5" ry="2.5" style="stroke:#181818;stroke-width:0.5;" width="191" x="214.5" y="164.3"/><rect fill="#F1F1F1" height="10" style="stroke:#181818;stroke-width:0.5;" width="15" x="385.5" y="169.3"/><rect fill="#F1F1F1" height="2" style="stroke:#181818;stroke-width:0.5;" width="4" x="383.5" y="171.3"/><rect fill="#F1F1F1" height="2" style="stroke:#181818;stroke-width:0.5;" width="4" x="383.5" y="175.3"/><text fill="#000000" font-family="sans-serif" font-size="14" lengthAdjust="spacing" textLength="151" x="229.5" y="197.2951">Perturbed Joint Vector</text></g><!--entity CG--><g id="elem_CG"><rect fill="#F1F1F1" height="46.2969" rx="2.5" ry="2.5" style="stroke:#181818;stroke-width:0.5;" width="215" x="75.5" y="287.6"/><rect fill="#F1F1F1" height="10" style="stroke:#181818;stroke-width:0.5;" width="15" x="270.5" y="292.6"/><rect fill="#F1F1F1" height="2" style="stroke:#181818;stroke-width:0.5;" width="4" x="268.5" y="294.6"/><rect fill="#F1F1F1" height="2" style="stroke:#181818;stroke-width:0.5;" width="4" x="268.5" y="298.6"/><text fill="#000000" font-family="sans-serif" font-size="14" lengthAdjust="spacing" textLength="175" x="90.5" y="320.5951">Counterfactual Generator</text></g><!--entity PCV--><g id="elem_PCV"><rect fill="#F1F1F1" height="46.2969" rx="2.5" ry="2.5" style="stroke:#181818;stroke-width:0.5;" width="249" x="58.5" y="410.89"/><rect fill="#F1F1F1" height="10" style="stroke:#181818;stroke-width:0.5;" width="15" x="287.5" y="415.89"/><rect fill="#F1F1F1" height="2" style="stroke:#181818;stroke-width:0.5;" width="4" x="285.5" y="417.89"/><rect fill="#F1F1F1" height="2" style="stroke:#181818;stroke-width:0.5;" width="4" x="285.5" y="421.89"/><text fill="#000000" font-family="sans-serif" font-size="14" lengthAdjust="spacing" textLength="209" x="73.5" y="443.8851">Pool of Counterfactual Vectors</text></g><!--entity ASC--><g id="elem_ASC"><rect fill="#F1F1F1" height="46.2969" rx="2.5" ry="2.5" style="stroke:#181818;stroke-width:0.5;" width="235" x="65.5" y="534.19"/><rect fill="#F1F1F1" height="10" style="stroke:#181818;stroke-width:0.5;" width="15" x="280.5" y="539.19"/><rect fill="#F1F1F1" height="2" style="stroke:#181818;stroke-width:0.5;" width="4" x="278.5" y="541.19"/><rect fill="#F1F1F1" height="2" style="stroke:#181818;stroke-width:0.5;" width="4" x="278.5" y="545.19"/><text fill="#000000" font-family="sans-serif" font-size="14" lengthAdjust="spacing" textLength="195" x="80.5" y="567.1851">Arcosine Similarity Calculator</text></g><!--entity OAV--><g id="elem_OAV"><rect fill="#F1F1F1" height="46.2969" rx="2.5" ry="2.5" style="stroke:#181818;stroke-width:0.5;" width="184" x="91" y="657.49"/><rect fill="#F1F1F1" height="10" style="stroke:#181818;stroke-width:0.5;" width="15" x="255" y="662.49"/><rect fill="#F1F1F1" height="2" style="stroke:#181818;stroke-width:0.5;" width="4" x="253" y="664.49"/><rect fill="#F1F1F1" height="2" style="stroke:#181818;stroke-width:0.5;" width="4" x="253" y="668.49"/><text fill="#000000" font-family="sans-serif" font-size="14" lengthAdjust="spacing" textLength="144" x="106" y="690.4851">Optimal Angle Vector</text></g><!--entity SCV--><g id="elem_SCV"><rect fill="#F1F1F1" height="46.2969" rx="2.5" ry="2.5" style="stroke:#181818;stroke-width:0.5;" width="211" x="77.5" y="780.78"/><rect fill="#F1F1F1" height="10" style="stroke:#181818;stroke-width:0.5;" width="15" x="268.5" y="785.78"/><rect fill="#F1F1F1" height="2" style="stroke:#181818;stroke-width:0.5;" width="4" x="266.5" y="787.78"/><rect fill="#F1F1F1" height="2" style="stroke:#181818;stroke-width:0.5;" width="4" x="266.5" y="791.78"/><text fill="#000000" font-family="sans-serif" font-size="14" lengthAdjust="spacing" textLength="171" x="92.5" y="813.7751">Sparse Corrective Vector</text></g><!--link JV to TC--><g id="link_JV_TC"><path d="M158,87.68 C145.42,109.47 129.4787,137.0931 116.9287,158.8431 " fill="none" id="JV-to-TC" style="stroke:#181818;stroke-width:1.0;"/><polygon fill="#181818" points="113.93,164.04,121.8926,158.2437,116.4289,159.7092,114.9634,154.2455,113.93,164.04" style="stroke:#181818;stroke-width:1.0;"/><text fill="#000000" font-family="sans-serif" font-size="13" lengthAdjust="spacing" textLength="31" x="141" y="130.3669">Train</text></g><!--link JV to PJV--><g id="link_JV_PJV"><path d="M196.82,87.68 C221.79,109.47 254.8796,138.3446 279.7996,160.0946 " fill="none" id="JV-to-PJV" style="stroke:#181818;stroke-width:1.0;"/><polygon fill="#181818" points="284.32,164.04,280.1696,155.1083,280.553,160.7522,274.9091,161.1355,284.32,164.04" style="stroke:#181818;stroke-width:1.0;"/><text fill="#000000" font-family="sans-serif" font-size="13" lengthAdjust="spacing" textLength="47" x="249" y="130.3669">Perturb</text></g><!--link PJV to CG--><g id="link_PJV_CG"><path d="M286.41,210.98 C263.6,232.76 233.5697,261.4466 210.7997,283.1866 " fill="none" id="PJV-to-CG" style="stroke:#181818;stroke-width:1.0;"/><polygon fill="#181818" points="206.46,287.33,215.7317,284.0081,210.0764,283.8772,210.2073,278.2219,206.46,287.33" style="stroke:#181818;stroke-width:1.0;"/><text fill="#000000" font-family="sans-serif" font-size="13" lengthAdjust="spacing" textLength="32" x="255" y="253.6669">Input</text></g><!--link TC to CG--><g id="link_TC_CG"><path d="M116.23,210.98 C130.96,232.76 149.7892,260.6196 164.4892,282.3596 " fill="none" id="TC-to-CG" style="stroke:#181818;stroke-width:1.0;"/><polygon fill="#181818" points="167.85,287.33,166.1223,277.6339,165.0493,283.188,159.4951,282.115,167.85,287.33" style="stroke:#181818;stroke-width:1.0;"/><text fill="#000000" font-family="sans-serif" font-size="13" lengthAdjust="spacing" textLength="32" x="147" y="253.6669">Input</text></g><!--link CG to PCV--><g id="link_CG_PCV"><path d="M183,334.27 C183,356.06 183,382.88 183,404.63 " fill="none" id="CG-to-PCV" style="stroke:#181818;stroke-width:1.0;"/><polygon fill="#181818" points="183,410.63,187,401.63,183,405.63,179,401.63,183,410.63" style="stroke:#181818;stroke-width:1.0;"/><text fill="#000000" font-family="sans-serif" font-size="13" lengthAdjust="spacing" textLength="183" x="184" y="376.9569">Generate 50 counterfactuals</text></g><!--link PCV to ASC--><g id="link_PCV_ASC"><path d="M183,457.57 C183,479.36 183,506.18 183,527.93 " fill="none" id="PCV-to-ASC" style="stroke:#181818;stroke-width:1.0;"/><polygon fill="#181818" points="183,533.93,187,524.93,183,528.93,179,524.93,183,533.93" style="stroke:#181818;stroke-width:1.0;"/><text fill="#000000" font-family="sans-serif" font-size="13" lengthAdjust="spacing" textLength="32" x="184" y="500.2569">Input</text></g><!--link ASC to OAV--><g id="link_ASC_OAV"><path d="M183,580.87 C183,602.66 183,629.48 183,651.22 " fill="none" id="ASC-to-OAV" style="stroke:#181818;stroke-width:1.0;"/><polygon fill="#181818" points="183,657.22,187,648.22,183,652.22,179,648.22,183,657.22" style="stroke:#181818;stroke-width:1.0;"/><text fill="#000000" font-family="sans-serif" font-size="13" lengthAdjust="spacing" textLength="120" x="184" y="623.5569">Calculate similarity</text></g><!--link OAV to SCV--><g id="link_OAV_SCV"><path d="M183,704.17 C183,725.95 183,752.78 183,774.52 " fill="none" id="OAV-to-SCV" style="stroke:#181818;stroke-width:1.0;"/><polygon fill="#181818" points="183,780.52,187,771.52,183,775.52,179,771.52,183,780.52" style="stroke:#181818;stroke-width:1.0;"/><text fill="#000000" font-family="sans-serif" font-size="13" lengthAdjust="spacing" textLength="134" x="184" y="746.8469">Subtract and provide</text></g><!--SRC=[PP0nRm8n38LtVeN5VbANBXqgdJAWie0un59rC7U6HWt9oSbHLLN_UrzoGA4iaVBy_DdFFRSVl1UQhYGAQ_jEDHwRf4s3ofI-9qIlys1zeWsqe6_4aUQRBA-LhPUEZECOxSxAM5oRN5oAWh15-QvxERQRCFWakcECOaSpyQ9yzfXPWOJWAEpedtLanH5c2WnRXuXjgB47wrXj-YB3hXtS1LatPR55d-m1aDhldLoljQWBgUbPes2aAchsUEDfC0sc-OQgwXb9wOdA5VuqX8DuIWzvUTBD3FABxuS44Ort6Zwbt-J-qp647X-elGaVCzECJ2Iw0kHVLf43wZcyKBnS1APShBhmwM5iogXcs2O5czXtr6iusaucFxy0]--></g></svg>